<?xml version="1.0" encoding="UTF-8"?>
<svg xmlns="http://www.w3.org/2000/svg" id="Layer_1" data-name="Layer 1" viewBox="0 0 24 24" width="512" height="512"><path d="m16.464,5h3.045l-2.164,12.459c-.156.815-.786,1.425-1.606,1.554-.102.016-.204.024-.305.024-.702,0-1.358-.385-1.7-1.01l-1.733-3.95-1.697,3.873c-.377.696-1.029,1.087-1.74,1.087-.1,0-.202-.009-.304-.025-.82-.129-1.45-.739-1.606-1.555l-2.163-12.459h3.045l1.466,8.445.25-.571,2.746-6.267,2.749,6.266.25.57,1.466-8.443Zm7.536-1.5v20.5H0V3.5C0,1.57,1.57,0,3.5,0h17c1.93,0,3.5,1.57,3.5,3.5Zm-3,0c0-.275-.225-.5-.5-.5H3.5c-.275,0-.5.225-.5.5v17.5h18V3.5Z"/></svg>
